<svg width="445" height="416" viewBox="0 0 445 416" fill="none" xmlns="http://www.w3.org/2000/svg">
<path fill-rule="evenodd" clip-rule="evenodd" d="M197.056 254.688L197.056 254.688C195.504 256.162 193.953 257.637 192.336 259.052C189.309 261.699 186.252 264.332 183.04 266.794C179.056 269.849 174.972 272.81 170.797 275.651C166.071 278.868 161.232 281.954 156.372 285.005C156.117 285.165 155.863 285.326 155.609 285.488L155.599 285.494C153.12 287.067 150.642 288.639 147.457 289.124C146.548 289.263 145.697 289.671 144.84 290.082C144.159 290.408 143.474 290.737 142.753 290.933C137.785 292.28 132.791 293.562 127.766 294.726C124.681 295.441 121.532 295.951 118.389 296.44C116.433 296.745 105.23 298.338 97.7777 299.305C90.325 300.273 65.6771 300.273 59.5235 300.158C56.0704 300.094 52.618 299.987 49.1666 299.869L48.9884 299.863C48.285 299.841 47.5376 299.817 46.9266 299.569C43.5367 298.195 40.9139 299.691 38.2559 301.208L38.0646 301.317C34.575 303.305 32.4392 306.296 30.3289 309.36C29.2077 310.988 28.0197 312.578 26.8318 314.169L26.8314 314.17C25.5531 315.882 24.2749 317.594 23.0799 319.351C21.4979 321.678 20.087 324.1 18.6775 326.519L18.6696 326.533L18.667 326.537L18.6666 326.538L18.6662 326.539L18.6658 326.539L18.6654 326.54C18.416 326.968 18.1666 327.396 17.9163 327.824C16.053 331.006 13.2578 332.856 9.2473 333.541C7.25401 333.882 5.54647 333.352 3.84306 332.824L3.84215 332.824C3.21119 332.628 2.5808 332.433 1.93665 332.282C0.675349 331.986 -0.341452 328.938 0.108363 327.731C1.4214 324.21 2.73706 320.689 4.05272 317.169C6.80241 309.811 9.55211 302.453 12.2778 295.088C14.1812 289.945 16.0396 284.789 17.8979 279.633L17.8991 279.629L17.9018 279.622C18.4255 278.169 18.9492 276.716 19.474 275.263C19.7243 274.57 19.9621 273.873 20.1999 273.176L20.2002 273.175L20.2003 273.175C20.5946 272.019 20.9889 270.863 21.4402 269.726C21.5881 269.353 22.2 268.893 22.6161 268.878C25.623 268.771 28.51 269.43 31.2529 270.437C36.4386 272.34 40.429 275.551 43.3582 279.824C44.1348 280.958 45.4904 281.365 47.2002 281.095C48.025 280.965 48.8575 280.867 49.6895 280.769L49.6904 280.768C50.9609 280.618 52.2306 280.468 53.4711 280.205C56.2309 279.619 59.0245 279.599 61.8172 279.579C63.6153 279.567 65.4131 279.554 67.2013 279.39C68.4272 279.278 69.6596 279.214 70.8916 279.149L70.893 279.149L70.8944 279.149L70.8958 279.149L70.8973 279.149L70.8987 279.149L70.9001 279.149L70.9015 279.149C72.5509 279.063 74.1996 278.977 75.8314 278.776C78.798 278.411 81.75 277.951 84.7021 277.491L84.7034 277.491L84.7047 277.491L84.706 277.491L84.7073 277.491L84.7086 277.49L84.7099 277.49L84.7113 277.49C86.1116 277.272 87.5119 277.054 88.9139 276.845C90.0473 276.677 91.1827 276.518 92.3181 276.359L92.3188 276.359L92.3196 276.359L92.3203 276.359L92.3211 276.359L92.3219 276.359L92.3226 276.359L92.3238 276.358L92.3282 276.358L92.3297 276.358C94.5197 276.051 96.7095 275.745 98.8852 275.371C101.671 274.893 104.435 274.309 107.198 273.726L107.699 273.62L108.195 273.516C111.115 272.901 114.031 272.267 116.946 271.632C118.171 271.365 119.396 271.099 120.621 270.833C120.752 270.805 120.883 270.775 121.014 270.745L121.093 270.727L121.196 270.703C121.171 270.691 121.146 270.679 121.121 270.667C121.08 270.648 121.038 270.629 120.996 270.609L120.995 270.609C120.851 270.542 120.706 270.476 120.568 270.399C120.145 270.166 119.709 269.944 119.272 269.723L119.272 269.723L119.272 269.723L119.272 269.723L119.271 269.723L119.271 269.723L119.271 269.723L119.27 269.723C118.273 269.217 117.275 268.712 116.425 268.053C114.516 266.571 115.169 264.109 117.596 263.454C119.446 262.954 121.352 262.452 123.263 262.338C125.836 262.183 128.18 261.419 130.527 260.653L130.528 260.653L130.528 260.653L130.528 260.653L130.528 260.653L130.529 260.653L130.529 260.653L130.529 260.653C131.471 260.346 132.414 260.038 133.372 259.77C135.635 259.137 136.992 257.946 138.128 256.124C138.675 255.246 139.477 254.502 140.282 253.754L140.282 253.754C140.849 253.228 141.418 252.7 141.9 252.122C144.402 249.132 146.834 246.092 149.203 243.016C149.706 242.361 150.11 241.647 150.515 240.931C150.824 240.384 151.133 239.837 151.488 239.316C152.319 238.094 153.165 236.857 154.191 235.769L154.326 235.626L154.326 235.625L154.326 235.625L154.326 235.625L154.326 235.625L154.326 235.625L154.327 235.625L154.327 235.625C156.681 233.128 159.042 230.624 161.602 228.302C162.997 227.036 164.538 225.898 166.078 224.761L166.078 224.761L166.079 224.76L166.079 224.76L166.079 224.76L166.079 224.76L166.079 224.76L166.08 224.76C166.808 224.222 167.536 223.685 168.249 223.133C168.609 222.855 168.954 222.553 169.257 222.226C169.776 221.664 169.99 221.196 169.206 220.531C169.002 220.358 168.797 220.185 168.591 220.012C166.544 218.291 164.478 216.554 163.36 214.172C163.243 213.922 163.124 213.673 163.006 213.423C162.108 211.527 161.201 209.613 160.69 207.628C160.003 204.955 160.28 202.235 161.171 199.542C162.417 195.773 165.026 192.918 168.56 190.869C170.74 189.604 173.034 188.499 175.329 187.393C177.029 186.574 178.73 185.754 180.385 184.869C181.665 184.185 182.759 183.19 183.827 182.219L183.842 182.206L183.989 182.072L184.133 181.942C188.94 177.592 192.29 172.327 195.627 167.083L195.628 167.082L195.628 167.081L195.629 167.08L195.63 167.079L195.63 167.078L195.631 167.077C195.984 166.521 196.337 165.966 196.692 165.412C199.918 160.378 202.813 155.167 205.698 149.965C206.529 148.467 207.241 146.916 207.954 145.365L207.954 145.365C208.583 143.994 209.213 142.623 209.925 141.287C210.488 140.232 211.182 139.233 211.876 138.234C212.386 137.5 212.896 136.765 213.355 136.007C213.848 135.194 214.297 134.358 214.746 133.523L214.747 133.523L214.747 133.522L214.747 133.522L214.747 133.521L214.748 133.521L214.748 133.52L214.748 133.52L214.748 133.52L214.748 133.519L214.749 133.519L214.749 133.519L214.749 133.519C215.43 132.252 216.111 130.987 216.939 129.803C217.53 128.957 218.389 128.259 219.246 127.563C219.605 127.271 219.963 126.979 220.302 126.677C220.724 126.301 221.154 125.931 221.584 125.561C222.032 125.175 222.48 124.789 222.92 124.396C223.695 123.702 224.461 122.999 225.203 122.278C226.63 120.892 228.065 119.513 229.5 118.133L229.503 118.131L229.503 118.131C233.044 114.727 236.584 111.323 240.008 107.827C244.019 103.732 247.835 99.4761 251.583 95.1831C253.074 93.4762 254.417 91.6664 255.76 89.8565L255.76 89.8563L255.761 89.8551L255.766 89.8483L255.766 89.8481L255.766 89.8478L255.767 89.8475L255.767 89.8472L255.767 89.847C256.363 89.0441 256.959 88.2412 257.568 87.4474C257.602 87.4024 257.631 87.353 257.659 87.3037C257.7 87.2335 257.74 87.1636 257.797 87.107C258.768 86.1508 259.728 85.1856 260.689 84.2203L260.689 84.2195C262.944 81.9535 265.199 79.6874 267.584 77.5379C271.124 74.3479 275.179 71.7029 279.581 69.5C280.252 69.1641 280.899 68.7827 281.545 68.4018C282.564 67.8017 283.58 67.2029 284.684 66.7851C284.945 66.6864 285.208 66.5855 285.472 66.4839C287.582 65.6731 289.794 64.823 291.972 64.7831C296.568 64.6989 301.345 64.7454 305.203 67.6511C305.934 68.2017 306.129 68.0719 306.198 67.3356C306.264 66.6324 306.397 65.9082 306.53 65.1838C306.841 63.4963 307.152 61.8075 306.61 60.3793C306.283 59.5158 306.168 58.6444 306.055 57.7805C305.927 56.8034 305.799 55.836 305.367 54.9005C303.92 51.775 302.63 48.591 301.34 45.4085L301.339 45.4076L301.339 45.4065L301.338 45.4052L301.338 45.4037C301.143 44.9243 300.949 44.445 300.754 43.9659C300.35 42.9721 300.022 41.9283 299.872 40.8829C299.765 40.1358 299.729 39.3803 299.693 38.6249C299.656 37.8496 299.619 37.0744 299.505 36.3082C299.1 33.5829 300.156 31.1884 301.217 28.7842L301.217 28.7826C301.411 28.3442 301.604 27.9055 301.789 27.4645C304.042 22.0853 308.264 18.0171 312.822 14.1968C316.747 10.9076 323.248 9.87268 328.506 9.06155C330.448 8.76194 344.079 8.47538 351.278 8.32405C353.626 8.27467 355.29 8.23969 355.64 8.22336C357.059 8.15697 358.021 7.56622 358.983 6.93197C360.967 5.62287 361.477 3.59256 361.978 1.59468L361.979 1.59013C362.028 1.39467 362.077 1.19952 362.128 1.00539C362.138 0.96653 362.147 0.928349 362.157 0.890933L362.159 0.882125L362.162 0.869534L362.163 0.866022C362.292 0.342122 362.383 -0.0251141 363.264 0.00134257C366.203 0.0896395 367.715 1.80671 369.155 3.76875C370.775 5.97818 372.088 8.28197 372.539 10.9155C373.088 14.1221 372.793 17.1007 370.244 19.7414C368.17 21.8891 365.757 23.5305 363.031 24.9079C362.669 25.0907 362.44 26.059 362.641 26.4726C364.695 30.7113 364.848 35.1798 364.647 39.666C364.599 40.7548 364.401 41.8379 364.204 42.9213L364.204 42.9216C364.017 43.948 363.83 44.9747 363.77 46.0069C363.595 48.9671 364.272 51.8141 365.599 54.5671C366.5 56.4348 365.867 58.2035 364.357 59.6713C364.099 59.9228 363.776 60.1332 363.456 60.3419C363.007 60.6355 362.562 60.9256 362.309 61.3211C361.735 62.2158 361.335 63.2925 361.242 64.3187C361.171 65.1041 361.265 65.8998 361.36 66.6973C361.418 67.1928 361.477 67.6889 361.496 68.1837C361.57 70.0888 360.76 71.7181 359.668 73.3444C357.691 76.2871 355.081 78.4522 351.295 79.161C348.05 79.7684 344.681 79.8045 341.547 78.8493C337.99 77.7648 334.522 76.3769 331.175 74.8415C330.225 74.4055 329.472 73.6222 328.72 72.8393C328.384 72.4891 328.048 72.139 327.694 71.8201C327.17 71.3479 326.905 71.2108 326.208 71.8707C323.72 74.2277 321.912 76.9053 320.45 79.8615C319.643 81.4931 320.166 82.8342 320.723 84.2627L320.789 84.4307L320.86 84.6142L320.941 84.8213L320.948 84.8384C321.72 86.8161 322.489 88.784 322.429 90.948C322.399 92.0204 322.423 93.096 322.446 94.1711C322.483 95.8699 322.519 97.5673 322.347 99.2489C322.163 101.048 321.711 102.825 321.26 104.601C321.078 105.316 320.897 106.031 320.733 106.747C320.558 107.507 320.388 108.268 320.217 109.029C319.701 111.331 319.185 113.634 318.568 115.914C318.283 116.969 317.89 118.001 317.498 119.033L317.498 119.033L317.498 119.034L317.498 119.034L317.497 119.034L317.497 119.034L317.497 119.035L317.497 119.035L317.497 119.035L317.497 119.035C317.176 119.879 316.855 120.724 316.592 121.582C316.288 122.577 315.979 123.571 315.67 124.566L315.67 124.566L315.67 124.567L315.67 124.567L315.669 124.568L315.669 124.568L315.669 124.569L315.669 124.57C314.469 128.434 313.269 132.3 312.297 136.211C311.465 139.56 310.985 143.007 310.706 146.433C310.531 148.576 310.557 150.731 310.584 152.887C310.598 154.079 310.613 155.271 310.594 156.462C310.579 157.362 310.527 158.261 310.474 159.161C310.408 160.304 310.342 161.448 310.353 162.591C310.357 163.047 310.36 163.504 310.364 163.96V163.961V163.961V163.961V163.962V163.962V163.962V163.963C310.386 166.981 310.408 170.005 310.705 173.005C311.001 175.998 311.636 178.98 312.369 181.917C312.972 184.33 314.821 186.195 316.657 187.943C317.611 188.853 318.67 189.674 319.73 190.496L319.73 190.496L319.73 190.496L319.73 190.497L319.73 190.497L319.731 190.497L319.731 190.497L319.731 190.497L319.731 190.498L319.732 190.498L319.732 190.498L319.732 190.498L319.733 190.499L319.733 190.499L319.733 190.499C320.474 191.074 321.215 191.648 321.92 192.253C322.404 192.669 322.84 193.131 323.276 193.594L323.276 193.594L323.276 193.594L323.276 193.594L323.276 193.595L323.277 193.595L323.277 193.595L323.277 193.595C323.818 194.169 324.358 194.743 324.988 195.222C327.049 196.791 329.145 198.322 331.241 199.853L331.242 199.854L331.243 199.855L331.245 199.856L331.246 199.856L331.247 199.857L331.248 199.858L331.249 199.859C332.836 201.018 334.423 202.178 335.995 203.353C337.408 204.409 338.799 205.488 340.191 206.567C341.597 207.657 343.003 208.748 344.431 209.814C346.382 211.273 348.362 212.711 350.429 214.032C351.402 214.655 352.421 215.219 353.44 215.784L353.441 215.784C354.495 216.368 355.549 216.952 356.552 217.599C357.756 218.376 358.69 217.939 359.619 217.504C359.939 217.354 360.259 217.204 360.588 217.105C363.266 216.296 365.383 216.601 366.388 218.904C366.589 219.366 366.896 219.781 367.205 220.198C367.767 220.957 368.336 221.726 368.287 222.797C368.272 223.133 369.081 223.533 369.774 223.876C369.94 223.957 370.099 224.036 370.239 224.11C372.278 225.186 374.343 226.226 376.408 227.262C376.849 227.484 377.305 227.686 377.76 227.887C378.637 228.276 379.512 228.663 380.273 229.185C381.049 229.718 381.753 230.333 382.457 230.949C383.164 231.567 383.87 232.184 384.648 232.717C386.25 233.815 387.158 235.325 388.061 236.826C388.393 237.377 388.723 237.927 389.087 238.455C390.093 239.913 390.674 241.702 391.008 243.411C391.459 245.716 391.642 248.086 391.631 250.427C391.627 251.405 390.963 252.455 390.355 253.337C389.698 254.287 388.714 254.423 387.766 253.504C387.689 253.429 387.579 253.38 387.47 253.331C387.42 253.308 387.369 253.285 387.322 253.26C387.312 253.337 387.303 253.414 387.294 253.491C387.287 253.551 387.28 253.61 387.272 253.669C387.268 253.697 387.264 253.724 387.26 253.752L387.252 253.804C387.192 254.197 387.143 254.593 387.095 254.99C386.976 255.967 386.857 256.943 386.551 257.87C386.346 258.491 385.454 259.312 384.836 259.338C384.362 259.359 383.862 258.963 383.367 258.572C383.169 258.415 382.971 258.258 382.776 258.13C382.585 258.004 382.423 257.841 382.264 257.68L382.213 257.629C382.113 257.528 382.025 257.419 381.936 257.31L381.889 257.252L381.868 257.227C381.851 257.206 381.834 257.186 381.817 257.165C381.803 257.193 381.788 257.221 381.773 257.249L381.729 257.335C381.664 257.459 381.6 257.583 381.531 257.704C381.442 257.861 381.364 258.029 381.286 258.197C381.111 258.574 380.935 258.951 380.633 259.209C379.466 260.203 377.897 259.815 377.416 258.419C377.166 257.695 376.958 256.958 376.751 256.221L376.751 256.22L376.75 256.22L376.75 256.219L376.75 256.219L376.75 256.218L376.75 256.217C376.462 255.195 376.174 254.174 375.775 253.188C375.61 252.781 375.474 252.366 375.338 251.951C374.94 250.737 374.542 249.522 373.424 248.499C372.619 247.763 372.127 246.747 371.637 245.736C371.446 245.343 371.256 244.95 371.048 244.574C369.794 242.316 367.723 240.839 365.327 239.647C364.675 239.323 364.027 238.966 363.46 238.536C362.204 237.581 361.335 238.101 360.571 239.073C359.309 240.678 357.216 241.269 355.27 240.345C352.288 238.928 349.852 237.067 349.042 233.879C348.892 233.29 347.919 232.769 347.205 232.409C345.059 231.327 342.9 230.264 340.74 229.201L340.737 229.2C337.154 227.437 333.572 225.674 330.049 223.819C325.654 221.506 321.373 219.017 317.095 216.53L317.083 216.523L317.072 216.516L317.06 216.509L317.048 216.503C316.634 216.262 316.219 216.021 315.804 215.78C309.06 211.863 302.342 207.911 295.623 203.959L295.611 203.951L294.319 203.191C293.436 202.672 292.554 202.153 291.671 201.634C290.196 200.767 288.731 199.886 287.267 199.006C286.245 198.391 285.224 197.777 284.199 197.168C283.789 196.924 283.356 196.704 282.912 196.516C281.586 195.956 281.196 196.158 281.09 197.43C281.088 197.46 281.089 197.489 281.089 197.519C281.09 197.537 281.09 197.555 281.09 197.573C281.061 199.367 281.033 201.161 281.005 202.956C280.928 207.861 280.851 212.766 280.77 217.672C280.744 219.242 281.663 220.445 282.569 221.631C282.753 221.871 282.936 222.111 283.11 222.352C286.306 226.779 289.567 231.168 292.861 235.536C293.762 236.732 294.696 237.908 295.63 239.084L295.631 239.085L295.632 239.087L295.633 239.088L295.635 239.089L295.636 239.091L295.637 239.092L295.638 239.094L295.638 239.094L295.639 239.095L295.639 239.096L295.64 239.097L295.641 239.097L295.641 239.098L295.642 239.099C297.053 240.876 298.465 242.653 299.763 244.495C300.421 245.43 300.815 246.516 301.208 247.6L301.208 247.602L301.209 247.602L301.209 247.603C301.382 248.079 301.554 248.554 301.749 249.016C301.837 249.227 301.931 249.437 302.025 249.648L302.025 249.649C302.278 250.215 302.531 250.783 302.69 251.37C303.973 256.119 303.395 260.83 302.127 265.491C302.082 265.654 302.038 265.818 301.994 265.981L301.873 266.427C301.085 269.338 300.294 272.263 299.145 275.062C298.224 277.307 297.073 279.475 295.923 281.644L295.922 281.645L295.922 281.646C295.368 282.691 294.814 283.736 294.285 284.789C293.362 286.628 292.469 288.481 291.587 290.337C290.091 293.483 288.603 296.633 287.132 299.789C286.599 300.933 286.083 302.085 285.568 303.236L285.566 303.241L285.566 303.241L285.565 303.242L285.565 303.242L285.565 303.243L285.565 303.243L285.564 303.244L285.564 303.244C284.531 305.551 283.499 307.858 282.325 310.105C280.633 313.344 278.753 316.505 276.874 319.664L276.867 319.675L276.827 319.743L276.806 319.779L276.574 320.168L276.342 320.559L276.066 321.024C274.893 323.002 273.69 324.967 272.487 326.931C271.323 328.833 270.159 330.735 269.021 332.649C267.983 334.395 266.973 336.154 265.963 337.914C264.884 339.794 263.804 341.674 262.691 343.539C261.109 346.186 259.452 348.799 257.746 351.384C256.326 353.536 256.737 354.538 258.38 356.52C260.161 358.668 262.929 359.386 265.674 359.947C273.204 361.486 280.75 362.961 288.296 364.437L288.675 364.511C289.435 364.659 290.205 364.77 290.974 364.881C291.839 365.005 292.704 365.13 293.555 365.308C297.805 366.198 299.938 368.995 301.075 372.464C301.802 374.684 302.017 377.067 300.041 378.911C299.294 379.608 297.931 380.126 296.846 380.129C282.871 380.171 268.895 380.178 254.919 380.185C246.116 380.189 237.313 380.194 228.51 380.207C227.484 380.208 227.41 379.933 227.332 379.126C227.253 378.305 227.09 377.485 226.927 376.667C226.687 375.466 226.448 374.267 226.478 373.071C226.62 367.323 228.872 362.176 232.811 357.656C233.095 357.33 233.556 357.114 234.011 356.901C234.518 356.664 235.016 356.43 235.254 356.053C236.403 354.236 237.388 352.304 238.143 350.327C239.352 347.16 240.553 343.964 241.329 340.698C241.685 339.198 242.2 337.744 242.715 336.288C243.356 334.479 243.997 332.668 244.336 330.764C244.694 328.753 245.628 326.816 246.556 324.891L246.556 324.891L246.557 324.89C246.845 324.293 247.132 323.697 247.402 323.101C248.322 321.064 249.272 319.037 250.223 317.011C251.699 313.862 253.176 310.714 254.539 307.526C255.51 305.255 256.315 302.926 257.121 300.598C257.581 299.268 258.04 297.939 258.531 296.62C259.57 293.828 260.624 291.039 261.814 288.298C262.081 287.683 261.931 287.672 261.556 287.645C261.486 287.641 261.408 287.635 261.324 287.625C256.306 287.029 251.361 287.081 246.681 289.079C245.655 289.517 244.933 289.426 244.254 288.664C243.56 287.885 243.922 287.317 244.535 286.602C248.193 282.341 250.465 277.488 252.208 272.368C252.391 271.831 252.579 271.296 252.766 270.761C253.899 267.534 255.027 264.318 254.997 260.889C254.973 258.291 254.258 255.961 252.261 253.788C251.823 253.311 251.419 252.811 251.018 252.313C249.82 250.825 248.639 249.359 246.584 248.592C245.543 248.204 244.516 247.785 243.489 247.366L243.489 247.366L243.488 247.366L243.488 247.366L243.487 247.366L243.487 247.366L243.486 247.365L243.486 247.365C242.419 246.93 241.352 246.495 240.27 246.094C239.448 245.79 238.627 245.482 237.805 245.175L237.803 245.174L237.8 245.173L237.799 245.173C234.556 243.959 231.312 242.745 228.003 241.696C225.993 241.059 223.912 240.603 221.83 240.147L221.83 240.147C220.884 239.94 219.938 239.733 218.999 239.509C218.814 239.465 218.632 239.413 218.449 239.361C218.304 239.319 218.158 239.278 218.011 239.24C215.872 238.694 214.005 238.789 212.552 240.635C211.915 241.444 211.04 242.104 210.123 242.795C209.94 242.932 209.757 243.071 209.573 243.212C206.117 246.26 202.816 249.303 199.527 252.358C198.697 253.128 197.876 253.908 197.056 254.688ZM277.929 200.621C278.033 199.943 278.184 199.27 278.334 198.598C278.518 197.773 278.702 196.949 278.802 196.116L278.83 195.883V195.883V195.882V195.882V195.882V195.882V195.881V195.881C279.046 194.097 279.264 192.286 279.122 190.511C279.048 189.591 278.774 188.687 278.5 187.781C278.278 187.047 278.055 186.311 277.939 185.565C277.324 181.644 276.771 177.712 276.345 173.771C275.975 170.348 275.728 166.914 275.481 163.482L275.481 163.481L275.481 163.479L275.481 163.478L275.481 163.477L275.481 163.476L275.481 163.475L275.48 163.471C275.446 162.989 275.411 162.507 275.376 162.025C275.127 158.595 274.896 155.162 274.746 151.726C274.602 148.433 274.531 145.138 274.46 141.843V141.842L274.443 141.054L274.429 140.455C274.425 140.248 274.504 140.04 274.583 139.831L274.583 139.831C274.634 139.698 274.685 139.564 274.715 139.429C274.748 139.277 274.789 139.124 274.83 138.97C274.944 138.546 275.058 138.119 275.016 137.707C274.969 137.253 274.855 136.801 274.741 136.35C274.587 135.739 274.433 135.13 274.45 134.522C274.563 130.5 274.766 126.48 274.969 122.461L274.969 122.459L274.969 122.457L274.97 122.455L274.97 122.453L274.97 122.451L274.97 122.449L274.97 122.447C275 121.853 275.03 121.258 275.06 120.663C275.103 119.799 275.228 118.934 275.375 118.077C275.791 115.658 276.224 113.24 276.656 110.823L276.839 109.802L276.96 109.128C276.995 108.932 277.042 108.737 277.089 108.543L277.089 108.541C277.111 108.451 277.133 108.36 277.154 108.27C277.166 108.37 277.182 108.469 277.198 108.569L277.198 108.572C277.232 108.788 277.266 109.004 277.271 109.221C277.371 113.762 277.465 118.302 277.56 122.843L277.593 124.478C277.625 125.997 277.657 127.516 277.69 129.034C277.767 132.649 277.845 136.263 277.908 139.878C277.95 142.271 277.983 144.665 278.016 147.059L278.016 147.066C278.076 151.417 278.136 155.768 278.251 160.117C278.337 163.363 278.568 166.611 278.889 169.846C279.125 172.218 279.47 174.582 279.815 176.945L279.815 176.946L279.815 176.946L279.815 176.947L279.815 176.948L279.815 176.948L279.815 176.949L279.815 176.95C279.925 177.699 280.034 178.449 280.14 179.198C280.288 180.247 280.449 181.294 280.611 182.342C280.893 184.173 281.175 186.003 281.386 187.84C281.653 190.175 282.91 192.065 284.717 193.561C286.036 194.654 287.523 195.584 289.01 196.514L289.01 196.515C289.597 196.882 290.184 197.249 290.76 197.626C291.965 198.414 293.165 199.21 294.364 200.005L294.365 200.005C297.375 202 300.385 203.996 303.478 205.881C306.242 207.566 309.087 209.145 311.931 210.724L311.932 210.724L311.932 210.724L311.932 210.724L311.933 210.725L311.933 210.725L311.934 210.725L311.934 210.725C313.311 211.489 314.687 212.253 316.055 213.029C317.37 213.776 318.681 214.53 319.991 215.283C322.319 216.623 324.646 217.962 327.003 219.26L327.448 219.505L327.45 219.506L327.45 219.506L327.45 219.506L327.45 219.506L327.451 219.507L327.451 219.507L327.451 219.507C331.769 221.886 336.089 224.266 340.51 226.484C342.612 227.539 344.84 228.395 347.064 229.25C347.635 229.469 348.205 229.689 348.773 229.911C349.103 230.04 349.863 229.892 350.02 229.657C350.39 229.1 350.631 228.47 350.87 227.845L350.87 227.845L350.936 227.671C350.962 227.604 350.988 227.537 351.014 227.471C351.943 225.099 353.12 222.884 355.126 221.037C356.64 219.643 356.427 219.224 354.324 218.432C354.206 218.388 354.088 218.344 353.97 218.299C353.091 217.971 352.204 217.64 351.407 217.19C349.923 216.353 348.481 215.445 347.096 214.482C345.866 213.628 344.633 212.776 343.4 211.925C339.241 209.053 335.081 206.181 331.037 203.184C327.272 200.395 323.694 197.389 320.19 194.335C319.702 193.91 319.209 193.489 318.716 193.067L318.715 193.067L318.715 193.067C315.734 190.517 312.74 187.957 310.849 184.575C310.59 184.111 310.29 183.665 309.99 183.218C309.12 181.922 308.25 180.626 308.379 178.923C308.457 177.882 308.301 176.824 308.146 175.769C308.089 175.387 308.033 175.005 307.988 174.625C307.866 173.596 307.721 172.567 307.576 171.539L307.576 171.539C307.279 169.438 306.983 167.337 306.883 165.229C306.748 162.381 306.779 159.528 306.81 156.674V156.673C306.823 155.444 306.836 154.215 306.836 152.987C306.836 152.699 306.827 152.409 306.817 152.12C306.797 151.489 306.776 150.857 306.854 150.235C307.231 147.208 307.616 144.18 308.125 141.169C308.225 140.581 308.322 139.992 308.419 139.403C308.893 136.519 309.369 133.63 310.153 130.814C310.838 128.357 311.679 125.937 312.52 123.516C313.185 121.601 313.85 119.686 314.438 117.752C314.861 116.361 315.327 114.979 315.793 113.598C316.96 110.14 318.127 106.682 318.622 103.065C318.73 102.277 318.953 101.492 319.176 100.709C319.503 99.5579 319.828 98.4127 319.783 97.2728C319.619 93.1544 318.336 89.1859 317.045 85.2243C315.116 79.3064 311.77 74.3704 305.982 70.8573C302.643 68.8304 299.143 67.3462 294.999 67.8231C293.497 67.996 292.009 68.2733 290.521 68.5506L290.521 68.5507L290.52 68.5508L290.52 68.5508L290.52 68.5509L290.519 68.551L290.519 68.551L290.519 68.5511C289.804 68.6844 289.089 68.8176 288.372 68.9393C284.301 69.6305 280.697 71.238 277.452 73.4975C275.553 74.8202 273.698 76.2 271.894 77.6261C270.091 79.0521 268.288 80.4943 266.645 82.0638C265.117 83.5233 263.695 85.0736 262.274 86.6225L262.059 86.8574L261.728 87.2177C261.601 87.3564 261.473 87.495 261.345 87.6335C258.903 90.2793 256.468 92.9308 254.079 95.6151C253.033 96.7909 252.008 97.9822 250.983 99.1734L250.983 99.1737L250.982 99.1741L250.982 99.1745L250.982 99.1748L250.982 99.1752L250.981 99.1756L250.981 99.1759C249.432 100.976 247.884 102.775 246.263 104.52C243.321 107.687 240.268 110.773 237.17 113.819C232.912 118.003 228.581 122.127 224.249 126.25C223.88 126.601 223.454 126.908 223.03 127.214C222.521 127.581 222.013 127.947 221.604 128.389C218.468 131.776 215.514 135.308 213.418 139.297C211.485 142.975 209.622 146.683 207.759 150.391C206.085 153.724 204.411 157.056 202.686 160.368C199.889 165.735 196.811 170.964 193.096 175.899L192.823 176.262C190.833 178.909 188.842 181.557 186.038 183.486C182.382 186.001 178.576 188.341 174.771 190.681C173.778 191.292 172.785 191.903 171.795 192.517C168.586 194.506 166.046 197.016 164.798 200.322C163.264 204.382 164.048 208.414 166.189 212.114C168.824 216.669 172.994 220.149 177.252 223.467C181.976 227.148 187.466 229.788 193.391 231.485C201.005 233.666 208.663 235.784 216.716 236.402C218.822 236.563 220.92 236.81 223.018 237.057L223.019 237.057C225.358 237.333 227.698 237.608 230.047 237.765C235.243 238.112 240.461 238.305 245.672 238.33C248.015 238.342 250.358 238.196 252.702 238.051H252.702H252.702H252.702H252.702H252.703H252.703H252.703C254.191 237.958 255.679 237.866 257.168 237.814C261.215 237.671 265.049 236.72 268.825 235.519C271.362 234.712 273.71 233.602 274.637 231.151C275.177 229.724 275.445 228.197 275.667 226.695L275.724 226.308C276.192 223.138 276.662 219.962 276.928 216.775C277.173 213.841 277.301 210.9 277.434 207.85L277.434 207.848L277.434 207.846L277.435 207.843C277.485 206.693 277.536 205.528 277.594 204.343C277.626 203.961 277.652 203.579 277.678 203.197C277.738 202.335 277.797 201.473 277.929 200.621ZM143.32 287.06C143.489 287.197 143.876 287.286 144.067 287.208C144.935 286.854 145.819 286.521 146.703 286.187L146.704 286.186C148.86 285.373 151.017 284.559 152.96 283.445C156.429 281.457 159.813 279.353 163.197 277.248L163.198 277.247C165.854 275.595 168.51 273.943 171.208 272.348C177.09 268.867 182.247 264.63 187.405 260.392C188.41 259.566 189.415 258.74 190.426 257.92C191.994 256.647 193.469 255.281 194.943 253.916L194.943 253.916C195.262 253.621 195.581 253.325 195.901 253.031C197.655 251.417 199.392 249.79 201.129 248.162L201.129 248.162L201.129 248.162L201.13 248.162L201.13 248.161L201.13 248.161L201.13 248.161L201.133 248.159C201.887 247.452 202.641 246.746 203.396 246.041C203.938 245.535 204.481 245.03 205.024 244.525C206.996 242.692 208.968 240.858 210.879 238.975C211.104 238.753 210.822 237.644 210.565 237.575C209.481 237.281 208.378 237.041 207.276 236.802L207.275 236.802L207.275 236.801L207.274 236.801C205.876 236.497 204.478 236.193 203.122 235.78L202.43 235.569L202.429 235.569C196.815 233.86 191.194 232.147 185.7 230.16C180.668 228.339 176.007 225.839 171.84 222.667C171.775 222.618 171.476 222.683 171.444 222.753C170.24 225.354 168.001 227.126 165.753 228.905C165.241 229.31 164.728 229.716 164.226 230.132C161.867 232.091 159.525 234.1 157.458 236.299C156.122 237.72 154.984 239.292 153.848 240.864L153.848 240.864L153.847 240.865L153.846 240.866C153.429 241.443 153.012 242.02 152.585 242.589C152.102 243.233 151.592 243.867 151.082 244.501C149.83 246.056 148.577 247.612 147.719 249.326C145.806 253.149 142.84 256.195 139.743 259.163C136.699 262.08 132.551 263.166 128.455 264.239L128.452 264.24L128.449 264.24C128.12 264.327 127.791 264.413 127.462 264.5L127.314 264.539C125.81 264.94 124.262 265.209 122.715 265.478L122.714 265.478L122.714 265.478L122.713 265.479L122.713 265.479L122.712 265.479L122.712 265.479L122.711 265.479L122.707 265.48C121.86 265.627 121.011 265.774 120.17 265.944C119.956 265.987 119.764 266.115 119.572 266.244C119.482 266.304 119.393 266.363 119.302 266.415C119.401 266.52 119.502 266.657 119.604 266.793C119.822 267.087 120.04 267.381 120.235 267.369C122.212 267.243 123.689 268.153 125.141 269.046L125.142 269.047C125.529 269.285 125.914 269.522 126.306 269.738C128.22 270.792 130.1 271.927 131.216 273.89C131.939 275.163 132.912 276.326 133.882 277.485C134.179 277.84 134.477 278.195 134.766 278.553C135.958 280.026 137.204 281.464 138.561 283.029L138.563 283.031L138.85 283.363C139.189 283.645 139.527 283.927 139.865 284.209C141.011 285.165 142.157 286.121 143.32 287.06ZM240.958 242.936C242.168 243.513 243.458 243.952 244.748 244.391C247.29 245.256 249.832 246.121 251.772 248.038C252.361 248.62 253.04 249.127 253.719 249.636C254.161 249.966 254.602 250.297 255.02 250.648C256.402 251.81 256.88 253.364 257.355 254.912L257.356 254.915C257.403 255.066 257.45 255.218 257.497 255.369C257.52 255.441 257.542 255.513 257.565 255.585C258.872 259.647 258.575 263.851 257.429 267.747C257.355 267.999 257.281 268.25 257.207 268.502C255.681 273.709 254.132 278.991 250.889 283.662C250.513 284.205 250.316 284.495 251.35 284.521C254.131 284.593 256.911 284.686 259.691 284.779H259.692H259.692H259.692H259.693H259.693H259.693H259.694C262.756 284.881 265.819 284.984 268.883 285.057C270.805 285.104 272.728 285.093 274.652 285.082C275.978 285.074 277.303 285.066 278.628 285.077C282.099 285.106 285.472 284.658 288.631 283.34C288.757 283.288 288.886 283.235 289.018 283.181C290.097 282.74 291.319 282.241 291.806 281.449C293.048 279.43 293.927 277.208 294.728 275.003C295.901 271.775 297.062 268.527 297.879 265.219C298.577 262.394 298.93 259.481 299.149 256.589C299.215 255.719 299.049 254.838 298.884 253.954L298.883 253.954C298.752 253.252 298.62 252.548 298.603 251.846C298.538 249.093 297.08 246.851 295.621 244.609L295.467 244.372L295.365 244.215C295.025 243.69 294.59 243.217 294.155 242.742C293.814 242.372 293.474 242.001 293.177 241.605C290.835 238.473 288.503 235.334 286.171 232.195C284.524 229.978 282.877 227.761 281.226 225.547C281.068 225.334 280.863 225.149 280.659 224.964L280.582 224.894L280.545 224.86L280.507 224.826L280.462 224.784L280.425 224.749C280.409 224.734 280.393 224.718 280.378 224.703C280.286 224.828 280.178 224.95 280.071 225.072C279.835 225.34 279.6 225.607 279.531 225.906C279.371 226.598 279.265 227.3 279.159 228.002L279.159 228.003L279.159 228.004L279.159 228.005L279.159 228.006L279.158 228.007L279.158 228.008L279.158 228.009C279.069 228.605 278.979 229.2 278.856 229.79C278.138 233.224 276.299 235.862 272.682 237.559C267.696 239.9 262.337 240.899 256.86 241.462C253.703 241.786 250.487 241.838 247.307 241.746C245.395 241.69 243.489 241.479 241.582 241.268L241.581 241.268C240.549 241.154 239.517 241.039 238.484 240.95C238.205 240.926 237.916 241.001 237.627 241.076C237.493 241.111 237.359 241.145 237.226 241.17C237.308 241.229 237.389 241.288 237.47 241.348C237.674 241.497 237.877 241.646 238.09 241.784C238.135 241.813 238.185 241.834 238.248 241.861C238.347 241.902 238.475 241.957 238.656 242.073C238.899 242.163 239.145 242.247 239.391 242.332L239.391 242.332L239.391 242.332L239.391 242.332L239.391 242.332L239.391 242.332L239.392 242.332L239.392 242.332C239.925 242.515 240.458 242.698 240.958 242.936ZM306.879 24.3274C304.864 26.9642 303.647 29.9709 303.033 33.1318C302.41 36.3437 302.322 39.5918 303.374 42.7269C303.996 44.5779 304.699 46.4073 305.402 48.2365C306.216 50.3538 307.03 52.4709 307.716 54.6209C308.14 55.9485 309.101 56.57 310.161 56.9042C315.168 58.4816 320.607 56.5634 323.716 52.446C324.559 51.3285 324.073 50.8698 323.215 50.0884C322.054 49.0309 321.038 47.8058 320.174 46.5358C318.884 44.64 319.43 42.7073 320.908 41.1763C322.387 39.6441 324.607 39.3036 326.673 39.9456C329.034 40.679 330.733 42.2937 331.944 44.2711C332.001 44.3638 332.042 44.4643 332.082 44.5649C332.101 44.6117 332.12 44.6584 332.14 44.7043C332.148 44.6903 332.155 44.6764 332.163 44.6625L332.182 44.629L332.182 44.6286C332.212 44.5751 332.242 44.5216 332.263 44.4654C332.442 43.9775 332.614 43.4867 332.786 42.9956L332.786 42.9949C333.691 40.4168 334.598 37.8316 336.426 35.632C337.851 33.9174 339.386 32.2075 341.196 30.8389C342.549 29.8158 344.219 29.1039 345.858 28.4054C346.098 28.3033 346.337 28.2015 346.574 28.099C347.133 27.8573 347.692 27.6105 348.251 27.3636C350.598 26.327 352.954 25.2863 355.426 24.5937C355.841 24.4773 356.051 24.42 356.148 24.3934L356.196 24.3801L356.216 24.3745L356.22 24.3733L356.221 24.373L356.221 24.3728C356.221 24.3728 356.222 24.3727 356.222 24.3727L356.22 24.3728L356.208 24.3751C356.078 24.4011 355.241 24.5679 363.41 21.9326C374.816 18.2532 368.948 6.66242 365.571 4.11261C365.32 3.92271 364.92 3.71877 364.65 3.77105C364.407 3.81804 364.098 4.1969 364.073 4.4498C363.819 6.98358 359.668 10.9155 349.806 10.305C343.057 9.8872 342.91 9.91125 342.588 9.96431C342.439 9.98878 342.252 10.0194 341.364 10.0158C339.238 10.007 331.877 10.6202 330.388 10.9966C329.847 11.1333 329.14 11.2655 328.308 11.421C324.343 12.1621 317.543 13.4332 312.399 18.2532C311.829 18.8726 311.243 19.4821 310.657 20.0916L310.657 20.092C309.336 21.4661 308.016 22.8403 306.879 24.3274ZM333.85 49.4848C333.85 50.7663 333.563 52.0272 333.276 53.2879L333.276 53.2886C333.138 53.8945 333 54.5003 332.894 55.1083C332.877 55.2043 332.822 55.2948 332.766 55.3853C332.74 55.4273 332.714 55.4694 332.692 55.512C332.684 55.4865 332.677 55.4609 332.669 55.4354L332.655 55.3893C332.643 55.3494 332.631 55.3094 332.62 55.2693C332.606 55.2215 332.594 55.1737 332.583 55.1254C332.453 54.5047 332.331 53.8821 332.21 53.2596C331.934 51.8512 331.659 50.4429 331.283 49.0564C330.832 47.3944 330.33 45.7005 329.497 44.1759C328.534 42.413 324.501 41.5811 322.516 42.506C321.384 43.0333 320.841 44.2972 321.575 45.2155C322.27 46.0842 323.121 46.9722 324.135 47.4891C325.798 48.3381 326.339 49.7536 326.474 51.1414C326.728 53.7507 323.667 57.4199 320.693 58.0798C317.988 58.6797 315.232 59.097 312.478 59.5139L312.478 59.5139L312.474 59.5144C311.825 59.6127 311.176 59.7109 310.528 59.8115C310.461 59.822 310.395 59.8318 310.329 59.8415C309.462 59.9695 308.772 60.0714 309.047 61.2073C309.793 64.2909 310.036 67.3976 309.411 70.5341C309.373 70.7246 309.76 71.0234 310.007 71.212C310.322 71.4529 310.653 71.6797 310.984 71.9064C311.593 72.3234 312.201 72.7397 312.705 73.2414C313.531 74.0661 314.302 74.9355 315.074 75.8051C315.603 76.4024 316.133 76.9998 316.681 77.5829C316.824 77.735 317.399 77.7985 317.537 77.6807C318.24 77.0801 318.924 76.4622 319.609 75.8443L319.61 75.8432C320.411 75.1201 321.212 74.3971 322.042 73.7018C324.05 72.0204 326.107 70.3853 328.19 68.7789C328.459 68.5708 328.831 68.4688 329.203 68.3669C329.374 68.3199 329.546 68.2728 329.707 68.2154C329.64 68.3546 329.574 68.4945 329.508 68.6345C329.327 69.0169 329.147 69.3992 328.933 69.7662C328.896 69.8303 328.789 69.8562 328.676 69.8835C328.579 69.9068 328.478 69.9312 328.414 69.9817C328.379 70.0086 328.345 70.0348 328.311 70.0604C327.91 70.3665 327.615 70.5916 328.506 70.9714C329.448 71.3729 330.321 71.9051 331.193 72.4372C331.558 72.6596 331.923 72.882 332.293 73.0948C337.989 76.3734 344.125 77.9128 350.918 76.9166C354.759 76.3531 357.396 74.5247 358.568 71.1428C359.689 67.9031 359.223 66.9605 355.763 65.6585C355.691 65.6318 355.62 65.6051 355.549 65.5785L355.409 65.5264C353.583 64.8473 351.77 64.1729 351.292 62.1719C351.092 61.3353 352.317 60.7311 353.071 61.1462C353.131 61.1792 353.169 61.2134 353.178 61.2481C353.547 62.757 354.828 63.2784 356.178 63.822C358.661 64.8219 358.964 64.682 358.964 62.4019C358.964 59.4167 358.964 59.4167 361.891 58.4868C363.587 57.9481 363.86 57.4213 363.089 55.948C361.926 53.7232 361.166 51.4566 361.488 48.9409C361.885 45.8408 362.216 42.7307 362.434 39.6169C362.574 37.616 362.708 35.5685 362.388 33.6014C362.183 32.3418 361.68 31.1209 361.177 29.9003C360.961 29.3752 360.745 28.8502 360.552 28.3222C360.1 27.0817 359.01 26.5833 357.588 27.042C356.699 27.3286 355.805 27.605 354.91 27.8814C352.42 28.651 349.928 29.4209 347.553 30.4139C345.053 31.459 342.522 32.7554 340.579 34.4637C338.832 35.9985 333.85 43.73 333.85 49.4848ZM128.549 291.054C129.603 290.843 130.657 290.635 131.711 290.426C134.005 289.972 136.299 289.517 138.589 289.045C138.918 288.977 139.226 288.825 139.533 288.673C139.605 288.637 139.676 288.602 139.748 288.568C139.819 288.534 139.891 288.501 139.963 288.47C139.841 288.405 139.717 288.343 139.593 288.281L139.593 288.281L139.592 288.281L139.592 288.28L139.591 288.28L139.591 288.28L139.59 288.28L139.59 288.279C139.304 288.136 139.019 287.993 138.757 287.821C138.467 287.631 138.22 287.381 137.979 287.136L137.966 287.123C137.281 286.428 136.585 285.74 135.889 285.052L135.888 285.051C134.191 283.373 132.495 281.696 130.946 279.916C129.414 278.155 128.196 276.16 126.995 274.191L126.965 274.142C126.373 273.172 125.701 272.762 124.562 273.118C119.72 274.63 114.708 275.456 109.695 276.281L109.693 276.281C107.079 276.712 104.465 277.143 101.875 277.671C97.6295 278.536 76.2561 281.824 74.3949 281.944C73.4891 282.002 72.5834 282.084 71.6778 282.167L71.6762 282.167L71.6753 282.167C69.914 282.327 68.1534 282.487 66.3945 282.469C61.8988 282.424 57.492 282.858 53.0889 283.622C51.7023 283.862 50.2958 284.015 48.8897 284.167L48.8891 284.167L48.8884 284.167L48.8877 284.168L48.887 284.168L48.8863 284.168L48.8856 284.168L48.8849 284.168L48.8837 284.168C47.2766 284.342 45.6701 284.517 44.0944 284.822C39.0193 285.806 37.3191 289.681 38.6265 293.468C38.8776 294.195 39.7745 295.016 40.5796 295.27C44.2508 296.432 48.0939 296.734 51.9785 296.761C53.979 296.775 55.979 296.858 57.9789 296.941L57.9811 296.941H57.9815H57.9818C58.7445 296.973 59.5071 297.005 60.2697 297.032C63.1359 297.137 66.0021 297.244 68.8682 297.35C71.1057 297.434 73.3432 297.517 75.5807 297.599C75.7393 297.605 75.8983 297.603 76.0572 297.601C76.2163 297.599 76.3754 297.597 76.5341 297.603C77.318 297.631 78.1032 297.679 78.8883 297.727C80.6061 297.832 82.3237 297.936 84.0277 297.842C86.701 297.694 89.3648 297.412 92.0288 297.129L92.036 297.128C93.2707 296.997 94.5055 296.867 95.7413 296.749C96.5001 296.677 97.261 296.618 98.0218 296.559L98.0224 296.559L98.023 296.559L98.0236 296.559L98.0242 296.559L98.0248 296.558L98.0254 296.558L98.0259 296.558C99.405 296.452 100.784 296.345 102.149 296.159L102.838 296.066L102.84 296.066C106.331 295.592 109.829 295.117 113.274 294.437C115.949 293.909 118.606 293.305 121.321 292.688L121.326 292.687L121.331 292.686L121.333 292.685L121.335 292.685C123.318 292.234 125.332 291.777 127.407 291.336C127.474 291.32 127.541 291.302 127.607 291.285L127.678 291.267L127.768 291.243C128.027 291.175 128.286 291.106 128.549 291.054ZM249.667 356.898C251.312 354.785 252.868 352.614 254.377 350.421C255.748 348.427 257.031 346.383 258.312 344.341C259.459 342.513 260.65 340.707 261.841 338.901L261.841 338.9C264.605 334.709 267.368 330.517 269.587 326.045C270.865 323.469 272.345 320.974 273.825 318.479L273.826 318.477C274.531 317.288 275.237 316.099 275.92 314.901C276.243 314.336 276.571 313.773 276.9 313.211C277.8 311.669 278.701 310.127 279.474 308.535C280.058 307.332 280.571 306.097 281.083 304.863C281.871 302.967 282.657 301.072 283.702 299.298C285.382 296.447 286.496 293.435 287.61 290.421L287.61 290.421L287.611 290.42C287.972 289.442 288.334 288.464 288.715 287.491C288.774 287.34 288.812 287.183 288.85 287.025C288.868 286.951 288.885 286.878 288.905 286.805C288.815 286.821 288.724 286.835 288.633 286.849C288.435 286.879 288.237 286.909 288.046 286.96C287.663 287.061 287.282 287.185 286.902 287.309C286.112 287.566 285.323 287.823 284.516 287.88C281.5 288.092 278.466 288.184 275.439 288.183C273.568 288.183 271.697 288.116 269.826 288.05H269.826H269.825H269.824H269.824H269.823H269.823H269.822C268.615 288.008 267.407 287.965 266.199 287.94C265.975 287.935 265.624 288.187 265.534 288.391C265.423 288.641 265.312 288.891 265.202 289.141L265.201 289.142C264.446 290.848 263.689 292.555 263.028 294.291C261.383 298.616 259.787 302.956 258.21 307.302C256.208 312.819 253.744 318.142 251.029 323.426C248.512 328.324 246.636 333.539 245.445 338.907C244.889 341.413 244.065 343.874 243.243 346.331C243.15 346.61 243.057 346.888 242.964 347.167C242.859 347.481 242.756 347.795 242.653 348.109C242.043 349.967 241.371 351.809 240.698 353.651L240.698 353.653C240.455 354.319 240.212 354.984 239.972 355.65C239.422 357.176 239.906 358.602 241.247 358.787C242.742 358.994 244.286 358.919 245.967 358.824C247.494 358.634 248.805 358.007 249.667 356.898ZM29.9563 304.42C31.6155 301.979 33.3248 299.769 36.6978 299.11C37.95 298.865 38.0192 298.281 37.1893 297.343C37.0072 297.138 36.815 296.933 36.6218 296.727C35.9284 295.987 35.2217 295.234 34.9225 294.378C34.599 293.452 34.6621 292.405 34.7241 291.378C34.74 291.113 34.7559 290.85 34.7651 290.59C34.875 287.485 35.8554 284.834 39.2932 283.326C40.3131 282.878 40.9255 282.204 39.9024 280.884C37.597 277.909 34.5415 275.803 31.1728 273.979C29.8523 273.264 28.6365 273.689 28.1115 274.937C27.8834 275.48 27.6526 276.022 27.4218 276.564C26.6922 278.276 25.9624 279.99 25.3154 281.727C24.605 283.635 23.9292 285.553 23.2534 287.471L23.253 287.472C22.5396 289.497 21.8263 291.522 21.0723 293.535C20.4495 295.197 19.9014 296.878 19.3531 298.559C18.3623 301.598 17.3709 304.638 15.9379 307.572C12.6383 314.327 9.97131 321.313 8.70929 328.654C8.64259 329.041 8.7355 329.707 8.99223 329.824C9.38261 330.002 10.0495 329.937 10.4767 329.75C11.1886 329.439 11.9365 329.05 12.435 328.518C13.9998 326.846 15.4554 325.093 16.9532 323.087C18.1934 321.312 19.4382 319.54 20.6831 317.767L20.6836 317.767L20.6838 317.766C23.7992 313.331 26.9145 308.896 29.9563 304.42ZM263.525 361.96C263.224 361.892 262.923 361.826 262.621 361.761C259.858 361.159 257.112 360.562 255.511 358.007C254.756 356.801 254.095 356.893 253.332 358.217C252.671 359.365 251.853 360.372 250.548 360.971C249.853 361.29 249.118 361.546 248.381 361.78C244.722 362.94 241.162 363.087 237.954 360.741C236.39 359.598 235.881 359.702 234.66 361.125C232.686 363.427 231.675 366.112 230.668 368.784L230.582 369.013C229.497 371.891 230.086 372.492 233.506 372.492H294.844C294.972 372.492 295.106 372.503 295.24 372.513H295.24C295.547 372.536 295.854 372.56 296.098 372.459C296.413 372.329 296.833 371.715 296.781 371.663C296.555 371.442 296.335 371.209 296.114 370.974C295.439 370.258 294.755 369.531 293.888 369.138C292.157 368.352 290.217 367.887 288.318 367.457C281.311 365.87 274.283 364.354 266.945 362.81C266.589 362.721 266.232 362.63 265.876 362.539L265.873 362.538C265.092 362.339 264.312 362.139 263.525 361.96ZM383.48 256.536C383.553 256.777 383.874 256.957 384.195 257.137C384.344 257.22 384.492 257.303 384.616 257.392C384.651 257.347 384.691 257.303 384.732 257.258C384.785 257.201 384.841 257.145 384.897 257.088C385.116 256.868 385.335 256.648 385.347 256.42C385.364 256.114 385.387 255.807 385.41 255.498L385.41 255.498C385.499 254.298 385.589 253.086 385.324 251.946C384.807 249.716 383.992 247.523 383.067 245.397C382.836 244.866 383.112 244.613 383.371 244.375C383.559 244.203 383.738 244.038 383.709 243.782C383.875 243.877 384.053 243.964 384.231 244.052C384.637 244.251 385.043 244.45 385.31 244.749C385.546 245.012 385.654 245.363 385.764 245.717C385.829 245.927 385.895 246.139 385.988 246.335C386.116 246.605 386.244 246.876 386.372 247.147L386.378 247.16C387.011 248.499 387.644 249.84 388.375 251.135C388.505 251.365 388.896 251.477 389.287 251.589C389.466 251.64 389.646 251.692 389.801 251.755C389.836 251.684 389.877 251.614 389.92 251.543C389.938 251.514 389.957 251.484 389.976 251.454C389.995 251.423 390.015 251.393 390.035 251.362C390.218 251.076 390.401 250.79 390.398 250.505C390.384 249.216 390.27 247.923 390.099 246.642L390.087 246.549L390.073 246.44L390.057 246.313L390.039 246.16L390.024 246.031C389.916 245.107 389.805 244.165 389.407 243.347C388.193 240.855 386.905 238.371 385.358 236.038C384.379 234.562 383.047 233.18 381.57 232.086C380.257 231.115 378.746 230.353 377.241 229.595C376.838 229.392 376.436 229.189 376.039 228.983C373.611 227.723 371.15 226.514 368.683 225.317C368.657 225.304 368.631 225.291 368.604 225.277L368.602 225.276C368.313 225.129 367.972 224.955 367.669 225.548C367.098 226.664 366.492 227.767 365.887 228.869C364.941 230.589 363.996 232.309 363.186 234.078C363.168 234.116 363.15 234.155 363.13 234.197C362.812 234.873 362.25 236.066 363.971 236.726C365.818 237.434 367.634 238.452 369.091 239.686C373.377 243.318 375.311 248.173 377.231 252.994L377.381 253.371C377.751 254.299 378.016 255.261 378.28 256.223C378.406 256.679 378.532 257.136 378.669 257.589C378.718 257.753 378.777 257.915 378.836 258.076L378.836 258.078C378.852 258.121 378.867 258.163 378.882 258.205C378.894 258.238 378.906 258.271 378.917 258.304C379.007 258.245 379.112 258.192 379.216 258.139C379.442 258.023 379.668 257.908 379.747 257.738C380.557 255.999 380.8 254.251 380.197 252.36C379.718 250.858 379.545 249.269 379.374 247.703L379.359 247.56C379.338 247.369 379.636 247.15 379.934 246.93C380.072 246.829 380.21 246.728 380.316 246.629L380.338 246.655C380.35 246.668 380.362 246.682 380.375 246.695C380.406 246.73 380.439 246.763 380.473 246.797C380.5 246.824 380.527 246.851 380.554 246.877C380.735 247.055 380.916 247.233 380.98 247.439C381.116 247.878 381.243 248.32 381.372 248.769L381.372 248.77C381.606 249.587 381.848 250.429 382.167 251.328C382.278 251.782 382.386 252.238 382.493 252.693C382.796 253.98 383.1 255.268 383.48 256.536ZM364.706 226.055L364.706 226.054C365.367 224.911 366.029 223.766 366.065 222.325C366.099 221.006 365.831 220.299 364.641 219.649C363.382 218.961 361.947 218.547 360.826 219.338C358.279 221.135 355.928 223.222 354.566 225.895C353.708 227.578 353.09 229.361 352.472 231.142C352.26 231.753 352.049 232.363 351.827 232.97C351.701 233.315 351.761 233.745 351.843 234.116C352.336 236.34 354.191 237.439 356.254 238.371C357.344 238.863 358.149 238.619 358.638 237.656C358.973 236.998 359.303 236.339 359.635 235.673C360.33 234.285 361.037 232.871 361.825 231.395C361.93 231.202 362.036 231.01 362.143 230.819C362.208 230.704 362.272 230.59 362.337 230.475L362.492 230.201C362.998 229.307 363.504 228.413 363.932 227.49C364.161 226.998 364.433 226.526 364.706 226.055ZM5.21663 327.875C6.35369 325.452 7.43365 322.998 8.34457 320.501C8.95374 318.831 9.49089 317.139 10.0281 315.448C10.5145 313.917 11.0009 312.385 11.5409 310.869C12.3883 308.49 13.277 306.123 14.1657 303.756L14.1661 303.755C14.9969 301.542 15.8277 299.329 16.6247 297.106C18.1168 292.945 19.5722 288.774 21.0276 284.602C21.6815 282.727 22.3355 280.853 22.9929 278.979C23.1659 278.486 23.3414 277.993 23.517 277.501L23.5174 277.5C23.9841 276.191 24.4508 274.882 24.8692 273.56C24.9314 273.364 24.8051 273.12 24.6788 272.876C24.6204 272.763 24.562 272.65 24.5222 272.542C24.393 272.619 24.2435 272.687 24.094 272.755C23.7707 272.902 23.4474 273.049 23.3292 273.28C22.2101 275.471 21.1165 277.677 20.1508 279.925C19.2618 281.994 18.4683 284.096 17.6752 286.198L17.675 286.198C17.5423 286.55 17.4095 286.902 17.2764 287.253C17.1287 287.643 16.9805 288.033 16.8323 288.423C15.9997 290.612 15.1668 292.802 14.4256 295.016C13.6583 297.308 12.9312 299.611 12.204 301.913L12.2035 301.915L12.2032 301.916C11.6707 303.602 11.1382 305.288 10.59 306.97C10.3887 307.588 10.1893 308.206 9.98991 308.824C9.15159 311.422 8.31291 314.021 7.33626 316.578C6.72797 318.17 6.08482 319.752 5.43922 321.339C4.53779 323.556 3.63156 325.784 2.80871 328.07C4.00195 329.479 4.45827 329.491 5.21663 327.875ZM276.215 377.665L276.901 377.62H276.901H276.902H276.902H276.902H276.902H276.903H276.903C278.495 377.515 280.087 377.41 281.681 377.34C283.786 377.248 285.891 377.166 287.997 377.084C290.779 376.975 293.56 376.867 296.34 376.736C296.56 376.726 296.768 376.53 296.977 376.334C297.074 376.243 297.171 376.152 297.269 376.08C297.185 376.034 297.102 375.984 297.02 375.935C296.828 375.819 296.637 375.703 296.426 375.639C296.262 375.589 296.074 375.601 295.886 375.614C295.848 375.616 295.811 375.618 295.774 375.62C295.728 375.623 295.682 375.625 295.638 375.625H232.445C232.427 375.625 232.409 375.624 232.391 375.624C232.372 375.623 232.354 375.622 232.335 375.621C232.31 375.619 232.284 375.617 232.258 375.615C232.215 375.611 232.171 375.606 232.127 375.602C231.886 375.577 231.645 375.552 231.513 375.648C231.059 375.975 230.652 376.393 230.377 376.847C230.32 376.943 230.868 377.518 231.209 377.586C232.148 377.773 233.124 377.889 234.086 377.89C247.582 377.908 261.078 377.903 274.733 377.76L275.039 377.741L275.331 377.723L275.75 377.696L276.215 377.665ZM365.796 382.154L365.794 382.155L365.791 382.156C360.957 383.856 356.151 385.547 351.408 387.371C348.168 388.618 344.923 388.81 341.548 388.72C341.261 388.713 340.976 388.655 340.691 388.597C340.384 388.535 340.078 388.473 339.772 388.474C339.524 388.474 339.277 388.596 339.03 388.718C338.919 388.773 338.808 388.828 338.697 388.871C338.755 388.953 338.808 389.039 338.861 389.126C338.978 389.317 339.095 389.508 339.266 389.645C339.753 390.036 340.262 390.435 340.836 390.704C345.209 392.753 347.737 398.346 346.191 402.542C345.433 404.602 344.515 406.789 342.979 408.393C341.729 409.698 339.55 410.558 337.606 411.01C334.536 411.723 331.332 411.745 328.237 410.741C325.531 409.863 323.588 408.238 322.155 406.043C318.674 400.708 320.104 396.08 323.806 391.772C324.292 391.207 325.076 390.851 325.866 390.492L325.866 390.492L325.867 390.492L325.867 390.491L325.867 390.491L325.868 390.491L325.868 390.491L325.868 390.491C326.309 390.29 326.752 390.089 327.146 389.85C327.426 389.68 327.643 389.428 327.86 389.176L327.86 389.175C327.959 389.06 328.058 388.945 328.163 388.838C327.989 388.799 327.815 388.754 327.641 388.708C327.242 388.603 326.844 388.498 326.441 388.482C326.163 388.472 325.884 388.536 325.603 388.6C325.342 388.66 325.081 388.72 324.82 388.72C321.522 388.722 318.225 388.724 314.927 388.725C292.632 388.738 270.337 388.75 248.043 388.718C242.655 388.711 237.268 388.639 231.88 388.567C228.71 388.525 225.539 388.482 222.368 388.453C220.025 388.431 217.682 388.437 215.338 388.443C214.272 388.445 213.206 388.448 212.141 388.448C211.911 388.448 211.682 388.447 211.452 388.445C210.815 388.442 210.179 388.439 209.543 388.461C209.411 388.465 209.281 388.546 209.152 388.627C209.092 388.664 209.033 388.702 208.973 388.731C209.03 388.768 209.087 388.805 209.144 388.842C209.266 388.921 209.388 389.001 209.517 389.072C210.051 389.37 210.611 389.644 211.171 389.917L211.172 389.918C212.377 390.506 213.582 391.095 214.527 391.92C220.994 397.565 218.908 408.724 209.232 410.96C201.403 412.769 194.486 410.44 192.162 402.124C190.729 396.998 194.56 390.885 200.353 389.284C200.604 389.214 200.821 389.045 201.037 388.876C201.137 388.798 201.238 388.719 201.342 388.651C201.281 388.621 201.22 388.587 201.159 388.551C201.113 388.524 201.068 388.496 201.023 388.468C200.794 388.327 200.566 388.186 200.336 388.185C192.699 388.158 185.541 386.171 178.521 383.796C169.091 380.606 159.923 376.885 151.434 371.974L151.272 371.881C149.704 370.975 148.086 370.041 147.532 368.147C146.496 364.601 148.5 361.867 152.201 360.969C156.141 360.011 159.92 361.019 163.641 362.087C170.105 363.941 176.564 365.809 183.022 367.677C186.607 368.713 190.191 369.75 193.777 370.784L194.243 370.918C196.191 371.481 198.14 372.043 200.105 372.556C200.825 372.744 201.602 372.839 202.353 372.842C205.591 372.853 208.83 372.854 212.069 372.855C215.294 372.857 218.52 372.858 221.746 372.869C222.224 372.87 223.046 372.99 223.115 373.206C223.265 373.673 223.264 374.179 223.262 374.685C223.262 374.772 223.261 374.859 223.262 374.947C223.263 375.056 223.264 375.166 223.269 375.274C223.222 375.26 223.174 375.24 223.126 375.221C223.022 375.179 222.919 375.137 222.82 375.145C222.456 375.174 222.092 375.214 221.728 375.254L221.726 375.255L221.725 375.255C221.183 375.314 220.64 375.374 220.096 375.399C218.207 375.486 216.318 375.565 214.429 375.644H214.428H214.428H214.427H214.427H214.427H214.426H214.426L214.415 375.644C211.893 375.749 209.37 375.854 206.849 375.98C202.381 376.203 198.167 375.077 193.992 373.962L193.953 373.951C190.712 373.085 187.512 372.098 184.312 371.11L184.311 371.11C182.503 370.552 180.694 369.994 178.878 369.458C176.609 368.788 174.334 368.134 172.059 367.48L172.057 367.48L172.055 367.479L172.054 367.479L172.052 367.478L172.05 367.478L172.049 367.477L172.047 367.477L172.031 367.472C169.407 366.718 166.784 365.964 164.17 365.186C163.509 364.989 162.864 364.725 162.22 364.463C161.195 364.045 160.174 363.628 159.102 363.486C157.131 363.225 155.021 363.366 153.056 363.713C152.288 363.849 151.428 364.942 151.186 365.738C150.863 366.801 151.082 367.848 152.473 368.639C158.928 372.309 165.732 375.353 172.719 378.114C179.067 380.623 185.621 382.578 192.315 384.172C193.389 384.428 194.55 384.449 195.674 384.468C198.239 384.511 200.805 384.54 203.371 384.568C207.703 384.616 212.035 384.664 216.365 384.782C221.16 384.913 225.952 385.121 230.744 385.329C232.973 385.426 235.201 385.523 237.43 385.612C239.407 385.691 241.384 385.767 243.362 385.844C246.225 385.954 249.087 386.065 251.95 386.184C252.567 386.209 253.185 386.255 253.803 386.301L253.804 386.301L253.805 386.301C254.892 386.382 255.979 386.463 257.063 386.432C258.013 386.405 258.959 386.288 259.906 386.17L259.907 386.17C260.725 386.068 261.544 385.966 262.366 385.923C262.92 385.894 263.48 385.967 264.042 386.041H264.042H264.042H264.043H264.043H264.043H264.044H264.044C264.5 386.101 264.956 386.161 265.412 386.167C265.649 386.169 265.887 386.173 266.124 386.176L266.744 386.184L267.056 386.189C269.582 386.225 272.11 386.262 274.63 386.154C276.804 386.061 278.975 385.908 281.146 385.755H281.146H281.147H281.147H281.147H281.147H281.148H281.148C283.241 385.607 285.335 385.46 287.432 385.366C288.054 385.338 288.683 385.476 289.314 385.615C289.869 385.737 290.426 385.86 290.982 385.87C294.795 385.94 298.612 385.933 302.426 385.886C306.145 385.84 309.865 385.752 313.58 385.593C314.316 385.562 315.056 385.448 315.795 385.333L315.795 385.333C316.887 385.165 317.974 384.997 319.033 385.1C323.283 385.512 327.546 385.617 331.805 385.721H331.806C334.732 385.793 337.655 385.865 340.571 386.036C345.836 386.346 350.499 385.221 355.116 383.533C361.366 381.248 367.565 378.828 373.647 376.21C377.447 374.573 381.075 372.601 384.688 370.638L384.689 370.637L384.689 370.637L384.69 370.637L384.69 370.637L384.691 370.636L384.691 370.636L384.692 370.636L385.354 370.276C387.658 369.024 389.417 367.258 390.14 364.832C390.504 363.608 389.742 362.672 388.371 362.645C384.116 362.561 380.231 363.882 376.368 365.212C370.75 367.146 365.156 369.136 359.581 371.164C357.326 371.985 355.088 372.843 352.851 373.702C351.176 374.344 349.501 374.987 347.818 375.614C347.231 375.832 346.555 375.956 345.919 375.958C340.603 375.977 335.288 375.975 329.973 375.974H329.949C328.882 375.974 327.815 375.973 326.748 375.973L325.572 375.973L323.562 375.973L321.186 375.974H321.136C317.192 375.975 313.248 375.976 309.304 375.969C307.949 375.967 306.594 375.927 305.24 375.882C305.153 375.879 305.013 375.685 305.004 375.574C304.992 375.418 304.998 375.259 305.005 375.101C305.015 374.878 305.024 374.657 304.98 374.443C304.796 373.534 305.232 373.395 306.168 373.4C312.844 373.44 319.521 373.458 326.197 373.411C326.861 373.406 327.526 373.402 328.191 373.397H328.192C333.843 373.36 339.497 373.323 345.136 373.066C346.925 372.984 348.727 372.288 350.439 371.627L350.439 371.627L350.686 371.531L350.877 371.458C360.65 367.708 370.522 364.19 380.694 361.398C382.536 360.892 384.498 360.702 386.442 360.513H386.442C386.809 360.477 387.176 360.442 387.541 360.404C388.866 360.268 390.271 360.181 391.555 360.425C393.596 360.813 394.443 362.564 393.819 364.394C392.685 367.721 390.418 370.252 387.12 372.049C384.767 373.332 382.405 374.603 380.031 375.881C377.843 377.059 375.645 378.242 373.431 379.446C370.886 380.364 368.343 381.258 365.808 382.15L365.806 382.151L365.803 382.152L365.801 382.153L365.799 382.153L365.796 382.154ZM340.921 394.827C337.205 391.209 332.912 390.544 327.793 393.19C324.835 394.719 323.536 398.315 323.785 400.594C324.053 403.048 325.424 405.082 327.519 406.676C330.031 408.587 332.969 408.591 335.995 408.009C342.716 406.717 344.733 398.908 340.921 394.827ZM195.934 399.181C195.932 399.311 195.929 399.442 195.927 399.572C195.916 400.132 195.904 400.693 195.946 401.25C196.286 405.844 202.249 409.414 207.506 408.062C211.248 407.1 213.406 405.101 214.171 401.59C215.343 396.206 211.605 392.327 206.441 391.658C201.34 390.998 197.143 393.517 195.937 398.796C195.937 398.924 195.936 399.053 195.934 399.181ZM236.829 415.093L248.622 415.093H307.288C310.044 415.093 312.8 415.094 315.556 415.094H315.584C328.675 415.096 341.765 415.098 354.855 415.057C355.71 415.054 356.652 414.613 357.356 414.181C357.545 414.064 357.143 413.141 356.752 412.744C356.488 412.476 355.769 412.379 355.254 412.379C313.321 412.368 271.387 412.365 229.454 412.363C213.091 412.362 196.729 412.361 180.367 412.359C179.759 412.359 179.151 412.323 178.543 412.286H178.543H178.542C178.325 412.273 178.108 412.26 177.89 412.248C176.884 412.196 175.58 413.395 175.995 414.082C176.592 415.07 177.816 415.095 179.016 415.094C198.238 415.093 217.46 415.093 236.773 415.093H236.784H236.795H236.807H236.818H236.829ZM131.937 415.797L124.047 415.797C112.347 415.797 100.734 415.797 89.1202 415.792C88.9984 415.792 88.8748 415.796 88.7512 415.8C87.9697 415.823 87.1902 415.845 86.8785 414.935C86.5175 413.881 87.0125 413.115 88.3275 412.977C88.577 412.951 88.8317 412.958 89.0864 412.965C89.2033 412.968 89.3202 412.972 89.4366 412.972L101.495 412.972H101.931C122.399 412.972 142.867 412.972 163.335 412.968C163.403 412.968 163.47 412.967 163.537 412.967C164.603 412.962 165.612 412.957 165.567 414.245C165.529 415.311 164.822 415.797 163.177 415.797C155.185 415.797 147.192 415.797 139.127 415.797H139.105H131.937ZM408.441 415.801L416.842 415.801C418.622 415.801 420.396 415.801 422.165 415.802C428.952 415.803 435.66 415.804 442.368 415.79C443.064 415.789 443.771 415.664 444.449 415.522C444.637 415.483 444.824 415.191 444.869 414.994C445.212 413.473 444.66 412.977 442.669 412.977C418.041 412.977 393.413 412.977 368.785 412.977C368.669 412.977 368.552 412.972 368.434 412.968C368.178 412.958 367.923 412.948 367.678 412.985C366.321 413.19 365.837 414.032 366.376 415.052C366.789 415.833 367.554 415.818 368.324 415.803L368.376 415.802C368.416 415.801 368.455 415.8 368.494 415.8C368.544 415.799 368.594 415.798 368.643 415.798C381.741 415.801 394.838 415.801 408.022 415.801H408.032H408.043H408.441ZM351.036 38.6304C351.313 38.6051 352.612 38.786 354.214 39.009C356.405 39.314 359.161 39.6977 360.639 39.7402C362.12 39.7828 360.715 41.2012 360.47 41.2105C357.203 41.3346 350.122 39.405 351.036 38.6304ZM355.807 49.8192C354.424 49.3507 355.085 45.5592 356.457 45.5592C357.812 45.5592 357.158 50.2767 355.807 49.8192ZM335.875 397.461C337.071 399.889 336.99 400.882 335.565 402.202C334.592 403.104 332.829 403.257 331.724 402.535C330.544 401.765 329.997 399.945 330.566 398.682C331.567 396.461 333.768 395.917 335.875 397.461ZM207.746 397.648C205.887 396.109 204.036 396.195 201.762 398.188C200.934 399.903 201.34 401.72 204.41 402.204C206.063 402.465 207.043 402.028 207.956 401.143C208.906 400.222 208.634 398.383 207.746 397.648Z" fill="#00160A"/>
<path fill-rule="evenodd" clip-rule="evenodd" d="M315.594 88.4737C312.83 87.7481 312.174 83.9988 309.386 83.3511C306.628 82.7104 303.978 85.632 301.228 84.9649C299.358 84.5112 298.484 82.6643 297.449 81.1998C296.442 79.7748 294.319 78.4886 292.804 79.4083L292.68 79.4901C290.578 80.9725 287.425 80.036 285.308 78.57C283.191 77.104 281.396 75.128 278.854 74.3738C280.188 73.1958 282.5 74.0506 283.793 75.2661C285.085 76.4815 286.136 78.083 287.931 78.5692C290.681 79.3142 293.779 77.0296 296.375 78.1318C297.989 78.8173 298.646 80.5105 299.612 81.8545C300.578 83.1985 302.682 84.325 304.054 83.3017C307.384 80.8181 313.335 82.3925 314.618 86.0966C314.99 87.1709 316.635 88.7471 315.594 88.4737Z" fill="#E7EAEE"/>
<path fill-rule="evenodd" clip-rule="evenodd" d="M150.726 369.986C158.405 374.033 182.459 385.953 200.092 386.348L345.939 386.758C345.939 386.758 422.628 362.634 366.558 371.737C363.385 372.252 354.296 377.114 339.683 378.174C312.971 380.11 200.092 378.873 200.092 378.873C200.092 378.873 148.706 368.922 150.726 369.986Z" fill="#E7EAEE"/>
<path fill-rule="evenodd" clip-rule="evenodd" d="M25.4719 289.728C25.6515 289.549 25.8695 289.422 26.0046 289.472C27.5406 290.041 28.4265 289.547 28.8931 288.19C28.9705 287.965 29.365 287.826 29.6129 287.647C29.8409 287.919 30.2608 288.19 30.2617 288.463C30.2649 289.368 30.704 289.793 31.6652 290.062C32.075 290.177 32.3174 290.763 32.6359 291.136C32.3151 291.202 31.8313 291.178 31.7077 291.354C31.4568 291.711 31.3253 292.17 31.2874 292.598C31.2552 292.961 31.4587 293.336 31.4944 293.71C31.5411 294.201 31.4529 294.562 30.8053 294.067C29.5123 293.078 28.3903 293.449 27.2859 294.381C27.0182 294.607 26.547 294.643 26.1693 294.767C26.2384 294.459 26.259 294.135 26.3847 293.847C27.0435 292.339 26.5884 291.043 25.4719 289.728Z" fill="#FFB61D"/>
</svg>
